<svg xmlns="http://www.w3.org/2000/svg" id="Capa_1" data-name="Capa 1" viewBox="0 0 56.44 56.44"><defs><style>.cls-1{fill:#feb700}.cls-2{fill:#fefefe}</style></defs><path d="M53.58,46.84c-1.4-3.25-4.46-3.78-7.37-5.12,3-1.55,6.16-1.92,7.49-5.51,2.33-6.27-4.37-11.58-10.04-8.32.06-3.26-.02-6.5-.41-9.74-.16-1.38-.63-5.43-1.16-6.49-.5-1-2.06-1.14-2.7-.22-.72,2.36-1.26,4.88-2.75,6.89-.5-4.72-2.32-9.47-4.58-13.61-.51-.95-2.02-3.66-2.71-4.3-.88-.82-2.45-.46-2.65.76-.22,1.26-.15,2.54-.45,3.88-1.11,4.96-4.66,7.43-6.32,11.92-.72,1.96-1.17,4.09-1.15,6.19-1.17-.53-1.97-2.6-3.25-2.69-1.1-.07-1.53.39-1.8,1.4-.48,1.89-.54,4.06-.7,6-2.09-.78-3.62-1.32-5.87-.71-4.78,1.32-6.47,7.4-3.19,11.1,1.69,1.91,4.14,2.23,6.25,3.43-2.93,1.37-6.04,1.9-7.42,5.2-2.21,5.31,2.54,10.71,8.04,9.32l17.29-7.07.45.07,16.97,7c5.56,1.41,10.31-4.09,8-9.4ZM43.26,31.52c1.87-.77,3.52-1.97,5.58-1.1,2.84,1.19,2.77,5.33.09,6.64l-9.35,3.84c2.03-2.76,3.03-6.05,3.69-9.38ZM7.51,37.06c-2.64-1.4-2.78-5.34,0-6.61,2.1-.94,3.77.28,5.67,1.07.48,2.78,1.26,5.54,2.92,7.85l-1.67.57c-2.14-1.11-4.81-1.77-6.92-2.87ZM9.76,53.23c-5.02.74-5.75-6.51-1.34-7.2,5.05-.8,5.84,6.54,1.34,7.2ZM15.85,50.71c.42-1.98-.34-4.18-1.65-5.68-.19-.21-1.14-.92-1.03-1.08l5.17-2.04c2.62,2.11,5.74,3.57,9.11,3.95l-11.6,4.85ZM16.68,32.73c-.52-2.45-.52-4.79-.32-7.27,1.26.72,4.17,4.42,5.67,2.54.78-.95.03-2.5-.05-3.63-.43-5.77,1.95-8.02,4.72-12.37,1.11-1.74,1.92-3.64,2.54-5.61.14-.12.23.14.29.23,2.2,3.73,4.14,9.84,4.18,14.18.01.99-.44,2.46.19,3.26,1.53,1.99,3.55-1.09,4.38-2.26.61-.88,1.24-1.87,1.68-2.84.17.02.22.17.24.32.74,4.47.35,11.79-1.26,16.07-4.42,11.67-19.85,8.59-22.26-2.62ZM46.9,53.26c-4.12-.38-4.28-6.64-.22-7.23,5.51-.81,5.69,7.74.22,7.23Z" class="cls-2"/><path d="M53.58,46.84c-1.4-3.25-4.46-3.78-7.37-5.12,3-1.55,6.16-1.92,7.49-5.51,2.33-6.27-4.37-11.58-10.04-8.32.06-3.26-.02-6.5-.41-9.74-.16-1.38-.63-5.43-1.16-6.49-.5-1-2.06-1.14-2.7-.22-.72,2.36-1.26,4.88-2.75,6.89-.5-4.72-2.32-9.47-4.58-13.61-.51-.95-2.02-3.66-2.71-4.3-.88-.82-2.45-.46-2.65.76-.22,1.26-.15,2.54-.45,3.88-1.11,4.96-4.66,7.43-6.32,11.92-.72,1.96-1.17,4.09-1.15,6.19-1.17-.53-1.97-2.6-3.25-2.69-1.1-.07-1.53.39-1.8,1.4-.48,1.89-.54,4.06-.7,6-2.09-.78-3.62-1.32-5.87-.71-4.78,1.32-6.47,7.4-3.19,11.1,1.69,1.91,4.14,2.23,6.25,3.43-2.93,1.37-6.04,1.9-7.42,5.2-2.21,5.31,2.54,10.71,8.04,9.32l17.29-7.07.45.07,16.97,7c5.56,1.41,10.31-4.09,8-9.4ZM43.26,31.52c1.87-.77,3.52-1.97,5.58-1.1,2.84,1.19,2.77,5.33.09,6.64l-9.35,3.84c2.03-2.76,3.03-6.05,3.69-9.38ZM7.51,37.06c-2.64-1.4-2.78-5.34,0-6.61,2.1-.94,3.77.28,5.67,1.07.48,2.78,1.26,5.54,2.92,7.85l-1.67.57c-2.14-1.11-4.81-1.77-6.92-2.87ZM9.76,53.23c-5.02.74-5.75-6.51-1.34-7.2,5.05-.8,5.84,6.54,1.34,7.2ZM15.85,50.71c.42-1.98-.34-4.18-1.65-5.68-.19-.21-1.14-.92-1.03-1.08l5.17-2.04c2.62,2.11,5.74,3.57,9.11,3.95l-11.6,4.85ZM16.68,32.73c-.52-2.45-.52-4.79-.32-7.27,1.26.72,4.17,4.42,5.67,2.54.78-.95.03-2.5-.05-3.63-.43-5.77,1.95-8.02,4.72-12.37,1.11-1.74,1.92-3.64,2.54-5.61.14-.12.23.14.29.23,2.2,3.73,4.14,9.84,4.18,14.18.01.99-.44,2.46.19,3.26,1.53,1.99,3.55-1.09,4.38-2.26.61-.88,1.24-1.87,1.68-2.84.17.02.22.17.24.32.74,4.47.35,11.79-1.26,16.07-4.42,11.67-19.85,8.59-22.26-2.62ZM46.9,53.26c-4.12-.38-4.28-6.64-.22-7.23,5.51-.81,5.69,7.74.22,7.23Z" class="cls-1"/><path d="M43.27,43.95c.11.16-.84.87-1.02,1.08-1.32,1.5-2.06,3.69-1.66,5.68l-8.16-3.38,9.31-3.84c.2-.07,1.48.4,1.53.46Z" class="cls-2"/></svg>