<svg xmlns="http://www.w3.org/2000/svg" xmlns:xlink="http://www.w3.org/1999/xlink" id="Capa_1" data-name="Capa 1" viewBox="0 0 220.33 98.19"><defs><style>.cls-1,.cls-2{fill:#fff}.cls-2{fill-rule:evenodd}.cls-3{filter:url(#drop-shadow-1)}</style><filter id="drop-shadow-1" width="232.56" height="110.4" x="-6.08" y="-6.18" filterUnits="userSpaceOnUse"><feOffset dx="0" dy="0"/><feGaussianBlur result="blur" stdDeviation="2"/><feFlood flood-color="#21627c" flood-opacity=".25"/><feComposite in2="blur" operator="in"/><feComposite in="SourceGraphic"/></filter></defs><g class="cls-3"><g><path d="M40.72,91.5c0-3.84,2.92-6.69,6.84-6.69,1.87,0,3.54.6,4.69,1.83l-.6.62c-1.13-1.11-2.5-1.56-4.05-1.56-3.37,0-5.91,2.49-5.91,5.8s2.54,5.8,5.91,5.8c1.54,0,2.92-.47,4.05-1.58l.6.62c-1.15,1.22-2.83,1.85-4.69,1.85-3.92,0-6.84-2.84-6.84-6.69Z" class="cls-1"/><path d="M54.27,91.5c0-3.82,2.92-6.69,6.86-6.69s6.86,2.84,6.86,6.69-2.94,6.69-6.86,6.69-6.86-2.86-6.86-6.69ZM67,91.5c0-3.33-2.52-5.8-5.88-5.8s-5.9,2.47-5.9,5.8,2.52,5.8,5.9,5.8,5.88-2.47,5.88-5.8Z" class="cls-1"/><path d="M82.74,84.91v13.18h-.79l-8.98-11.45v11.45h-.96v-13.18h.81l8.97,11.45v-11.45h.96Z" class="cls-1"/><path d="M87.8,84.91h5.22c4.18,0,7.01,2.75,7.01,6.59s-2.83,6.59-7.01,6.59h-5.22v-13.18ZM92.94,97.23c3.73,0,6.12-2.37,6.12-5.73s-2.39-5.73-6.12-5.73h-4.18v11.45h4.18Z" class="cls-1"/><path d="M102.99,91.5c0-3.82,2.92-6.69,6.86-6.69s6.86,2.84,6.86,6.69-2.94,6.69-6.86,6.69-6.86-2.86-6.86-6.69ZM115.72,91.5c0-3.33-2.52-5.8-5.88-5.8s-5.9,2.47-5.9,5.8,2.52,5.8,5.9,5.8,5.88-2.47,5.88-5.8Z" class="cls-1"/><path d="M133.19,98.09l-.02-11.28-5.52,9.53h-.47l-5.52-9.49v11.24h-.94v-13.18h.81l5.9,10.19,5.9-10.19h.79l.02,13.18h-.94Z" class="cls-1"/><path d="M139.18,84.91h.96v13.18h-.96v-13.18Z" class="cls-1"/><path d="M155.89,84.91v13.18h-.79l-8.99-11.45v11.45h-.96v-13.18h.81l8.97,11.45v-11.45h.96Z" class="cls-1"/><path d="M160.94,84.91h.96v13.18h-.96v-13.18Z" class="cls-1"/><path d="M165.9,91.5c0-3.82,2.92-6.69,6.86-6.69s6.86,2.84,6.86,6.69-2.94,6.69-6.86,6.69-6.86-2.86-6.86-6.69ZM178.63,91.5c0-3.33-2.52-5.8-5.88-5.8s-5.9,2.47-5.9,5.8,2.52,5.8,5.9,5.8,5.88-2.47,5.88-5.8Z" class="cls-1"/></g><g><path d="M65.23,26.45c3.5,0,6.41.76,8.74,2.28,3.14,2.03,4.7,5.19,4.7,9.5,0,3.11-.96,5.77-2.89,7.98-2.09,2.35-5,3.53-8.74,3.53-1.97,0-3.76-.42-5.37-1.27-1.61-.85-2.55-2.31-2.83-4.37l.54-.16c.44,1.55,1.47,2.64,3.08,3.26,1.09.43,2.05.65,2.9.65,3.3,0,5.69-1.16,7.18-3.48,1.09-1.7,1.63-3.73,1.63-6.08,0-3.77-1.17-6.48-3.5-8.15-1.77-1.3-4.02-1.95-6.76-1.95-.64,0-1.2.02-1.66.08-.46.05-2.48.35-6.06.89v32.2c.04.98.44,1.79,1.21,2.44.76.65,1.65.98,2.65.98h.78v.54h-13.2v-.54h.78c1.01,0,1.89-.33,2.66-.98.76-.65,1.16-1.47,1.2-2.44v-29.38c0-.94-.3-1.68-.91-2.2-.6-.52-1.39-.79-2.35-.79-.2,0-.4.02-.6.06l-.72.05-.12-.54c2.09-.18,4.89-.54,8.41-1.06,3.52-.52,5.7-.83,6.54-.93.84-.09,1.75-.13,2.71-.13" class="cls-2"/><path d="M119.56,51.19c-.5,1.9-1.22,3.68-2.15,5.33-.94,1.65-2.09,3.12-3.46,4.4-1.37,1.28-2.94,2.28-4.69,3-1.3.56-2.58.93-3.85,1.11-1.27.18-2.58.27-3.94.27-2.26,0-4.42-.46-6.48-1.38-2.05-.92-3.87-2.26-5.43-4.03-1.69-1.9-2.91-3.99-3.67-6.29-.76-2.29-1.13-4.75-1.13-7.37,0-2.06.24-4.04.72-5.94.48-1.9,1.2-3.66,2.15-5.28.95-1.62,2.12-3.07,3.51-4.35,1.39-1.28,2.97-2.31,4.76-3.09,1.33-.59,2.63-.97,3.89-1.15,1.27-.18,2.61-.27,4.03-.27,2.14,0,4.27.46,6.39,1.37,2.11.92,3.91,2.24,5.39,3.98h-.05c1.72,1.96,2.94,4.1,3.67,6.41.72,2.31,1.09,4.79,1.09,7.44,0,2-.25,3.95-.75,5.84M115.8,40.31c-.68-2.01-1.79-3.89-3.33-5.62-1.51-1.67-3.19-2.92-5.05-3.76-1.86-.84-3.86-1.24-6-1.2-2.11,0-3.97.35-5.57,1.06-1.6.7-2.94,1.69-4.03,2.95-1.09,1.26-1.91,2.79-2.47,4.59-.56,1.8-.84,3.81-.84,6.04-.03,2.26.32,4.44,1.04,6.53.72,2.1,1.83,3.95,3.31,5.55h-.04c1.09,1.21,2.36,2.21,3.83,3,1.46.79,2.98,1.33,4.55,1.62,1.57.29,3.14.36,4.71.2,1.57-.16,3.03-.59,4.39-1.28,1.36-.69,2.55-1.64,3.58-2.85,1.03-1.21,1.78-2.7,2.26-4.47.24-.95.41-1.91.52-2.87.11-.97.16-1.92.16-2.87,0-2.39-.34-4.59-1.02-6.61" class="cls-1"/><path d="M150.98,60.74c-.1.47-.21.94-.33,1.4-.12.46-.2.93-.26,1.42-.06.49-.16.95-.3,1.38-.03.1-.12.15-.26.15-.12,0-.2.03-.26.1-3.72-.16-7.4-.25-11.06-.25s-7.34.12-11.06.34l-.17-.1-.17-.49.39-.29c.81-.07,1.49-.44,2.02-1.13.54-.69.83-1.47.89-2.36.2-5.08.3-10.14.28-15.2-.02-5.06-.11-10.13-.28-15.2-.03-.92-.32-1.72-.87-2.41-.55-.69-1.23-1.06-2.05-1.13-.12-.1-.2-.2-.26-.32-.06-.11-.12-.24-.17-.37l.39-.2c1.68.13,3.35.22,5.01.27,1.65.05,3.32.09,5.01.12l.17.15.22.49-.39.25c-.84,0-1.51.31-2,.93-.49.62-.74,1.39-.74,2.31.03,5.3.04,10.58.04,15.82s-.03,10.51-.09,15.82c1.92-.07,3.82-.09,5.7-.07,1.89.02,3.79.06,5.7.12.49,0,.95-.06,1.37-.17.42-.11.83-.32,1.24-.61.81-.59,1.35-1.42,1.61-2.51l.3-.2.44.1.22.44c-.09.46-.18.93-.28,1.4" class="cls-1"/><path d="M195.25,49.98l24.46,5.27c.24-.99.43-1.98.62-2.98l-24.46-5.26h-.03c.26-2.04.21-4.1-.16-6.13h.01s10.34-2.74,10.34-2.74l-.78-2.93-10.32,2.74c-.67-1.9-1.65-3.72-2.93-5.38l18.67-16.74c-.33-.39-.64-.78-.98-1.15-.34-.39-.69-.74-1.05-1.12l-18.66,16.74c-1.53-1.45-3.23-2.62-5.04-3.48l3.85-9.97-2.84-1.09-3.85,9.98c-1.97-.6-4.03-.86-6.07-.82l-2.56-24.92c-1.01.07-2.02.15-3.02.29l2.56,24.94c-2,.36-3.95,1.04-5.79,2.03l-5.81-8.99-2.54,1.65,5.81,8.99c-.42.31-.82.62-1.21.96-1.8,1.62-3.28,3.56-4.35,5.69-2.38-4.94-5.46-9.61-9.27-13.86-2.12-2.37-4.46-4.56-6.93-6.55-.67.77-1.31,1.56-1.92,2.36,2.35,1.88,4.56,3.96,6.59,6.22,4.38,4.87,7.76,10.35,10.1,16.14-.21.83-.36,1.69-.45,2.56-1.15,10.67,6.6,20.28,17.25,21.43,6.26.68,12.16-1.71,16.19-5.96l8.24,6.69,1.91-2.35-8.23-6.69-.07-.05c1.19-1.72,2.07-3.59,2.65-5.53h.06ZM182.88,59.91c-2.47,1.02-5.24,1.46-8.08,1.15-8.48-.92-14.81-8.1-14.84-16.43-.02-.62.02-1.25.09-1.9.35-3.23,1.59-6.13,3.49-8.5.19-.25.39-.5.61-.73.17-.2.35-.4.54-.59.46-.47.96-.92,1.47-1.33.15-.12.29-.23.45-.35,1.49-1.11,3.17-1.99,4.96-2.55.28-.09.55-.16.82-.24,1.9-.5,3.93-.67,5.99-.45,9.11.98,15.74,9.2,14.75,18.31-.68,6.28-4.79,11.36-10.24,13.6" class="cls-1"/><path d="M190.97,11.19l3-7.76c-.93-.4-1.88-.76-2.83-1.09l-2.99,7.75,2.83,1.09Z" class="cls-1"/><path d="M158.13,13.19l-4.52-6.99c-.86.52-1.71,1.07-2.55,1.65l4.51,6.98,2.55-1.65Z" class="cls-1"/><path d="M219.92,34.45c-.22-.98-.48-1.96-.78-2.93l-8.04,2.13.78,2.93,8.03-2.13Z" class="cls-1"/><path d="M202.58,67.41l6.45,5.25c.67-.77,1.31-1.55,1.92-2.35l-6.46-5.25-1.91,2.35Z" class="cls-1"/><path d="M54.18,71.33c-.78.14-1.65.21-2.64.21s-2.24-.24-3.74-.72c-1.51-.48-2.96-1.32-4.36-2.51-1.39-1.19-2.93-2.97-4.62-5.33-1.68-2.36-2.14-3.06-3.73-7.07l-7.09-17.91c-1.43-3.62-2.61-6.12-3.54-7.5-1.39-2-2.65-3.35-3.77-4.04-2.05-1.27-4.05-1.91-5.99-1.91-2.32,0-4.74.47-7.26,1.4l.17.52c1.59-.52,3.08-.77,4.47-.77,3.1,0,5.69,1.33,7.79,3.98l-14.41,30.75c-.58,1-1.32,1.75-2.21,2.25-.89.5-1.8.75-2.73.75h-.52v.52h11.67v-.52h-.47c-.85,0-1.48-.23-1.89-.7-.41-.47-.61-.91-.61-1.32s.1-.83.29-1.24l4.01-9.22h15.91l2.26,5.9c2.35,6.13,3.94,8.22,7.25,11.24,1.57,1.43,3.22,2.58,4.99,3.39,1.78.81,3.56,1.22,5.34,1.22s3.6-.28,5.46-.83l-.06-.52ZM13.65,49.38l7.67-17.49c.73,1.31,1.55,3.12,2.44,5.43l4.59,12.06h-14.7Z" class="cls-2"/></g></g></svg>