<svg xmlns="http://www.w3.org/2000/svg" id="Capa_1" data-name="Capa 1" viewBox="0 0 48.95 48.95"><defs><style>.cls-1{fill:#feb700}.cls-2{fill:#fefefe}</style></defs><path d="M19.41,19.99v6.1c-.07,0-.19-.03-.19-.09-.06-1.69-.08-3.66,0-5.35-.07-.36,0-.58.19-.66Z" class="cls-2"/><path d="M41.67,12.71l-22.26,7.28.03-.21,22.23-7.27c1.22-.49,1.23-2.02.02-2.54-7.47-2.33-14.92-4.71-22.35-7.14,0-.85-.18-1.6-.55-2.24-.25-.16-.39-.34-.43-.55,1.14.56,1.02,1.59,1.11,2.69l22.3,7.07c1.41.62,1.33,2.4-.1,2.91Z" class="cls-2"/><path d="M43.74,44.55c-9.72,5.83-28.96,5.82-38.63-.1-2.36-1.44-4.42-3.46-5.07-6.24l.27.27c1.04,3.62,4.39,5.83,7.71,7.26,9.48,4.07,24.14,4,33.54-.26,4.21-1.91,9.22-6.01,6.31-11.01-2.87-4.95-11.09-7.21-16.46-7.93-3.87-.51-7.32-.43-11.19-.32-.27.01-.54-.06-.81-.13,5.16-.42,10.51-.22,15.57.89,4.33.95,10.63,3.25,12.98,7.26,2.58,4.39-.53,8.09-4.22,10.31Z" class="cls-2"/><path d="M27.68,35.43c-1.12-.73-2.98-.87-4.28-.72-1.42.16-4.3,1.44-2.41,3.02,1.54,1.29,5.28,1.29,6.87.1,1.03-.77.85-1.74-.18-2.4ZM27.68,35.43c-1.12-.73-2.98-.87-4.28-.72-1.42.16-4.3,1.44-2.41,3.02,1.54,1.29,5.28,1.29,6.87.1,1.03-.77.85-1.74-.18-2.4ZM47.96,34.24c-2.35-4.01-8.65-6.31-12.98-7.26-5.06-1.11-10.41-1.31-15.57-.89v-6.1l22.26-7.28c1.43-.51,1.51-2.29.1-2.91L19.47,2.73c-.09-1.1.03-2.13-1.11-2.69h-.76c-.68.31-1.15.58-1.24,1.39l-.04,25.05c-4.94,1-11.29,2.6-14.65,6.63-.81.96-1.24,2.02-1.63,3.19v1.91c.65,2.78,2.71,4.8,5.07,6.24,9.67,5.92,28.91,5.93,38.63.1,3.69-2.22,6.8-5.92,4.22-10.31ZM36.21,11.26l-16.8,5.48V5.77l16.8,5.49ZM5.89,33.52c2.96-2.07,6.94-3.14,10.47-3.7v7.29s.19.46.24.53c.61.89,2.19.93,2.76-.01.03-.06.24-.58.24-.61v-7.87c4.93-.4,10.06-.26,14.91.79,3.3.72,9.63,2.72,11.19,5.98,1.53,3.18-2.88,5.85-5.26,6.95-8.27,3.82-21.54,3.87-30.05.78-4.68-1.69-11-5.6-4.5-10.13ZM20.99,37.73c1.54,1.29,5.28,1.29,6.87.1,1.03-.77.85-1.74-.18-2.4-1.12-.73-2.98-.87-4.28-.72-1.42.16-4.3,1.44-2.41,3.02ZM27.68,35.43c-1.12-.73-2.98-.87-4.28-.72-1.42.16-4.3,1.44-2.41,3.02,1.54,1.29,5.28,1.29,6.87.1,1.03-.77.85-1.74-.18-2.4ZM27.68,35.43c-1.12-.73-2.98-.87-4.28-.72-1.42.16-4.3,1.44-2.41,3.02,1.54,1.29,5.28,1.29,6.87.1,1.03-.77.85-1.74-.18-2.4Z" class="cls-1"/><path d="M27.86,37.83c-1.59,1.19-5.33,1.19-6.87-.1-1.89-1.58.99-2.86,2.41-3.02,1.3-.15,3.16-.01,4.28.72,1.03.66,1.21,1.63.18,2.4Z" class="cls-2"/><path d="M27.86,37.83c-1.59,1.19-5.33,1.19-6.87-.1-1.89-1.58.99-2.86,2.41-3.02,1.3-.15,3.16-.01,4.28.72,1.03.66,1.21,1.63.18,2.4Z" class="cls-1"/></svg>