<?xml version="1.0" encoding="UTF-8"?>
<svg id="Capa_1" data-name="Capa 1" xmlns="http://www.w3.org/2000/svg" viewBox="0 0 60.48 49.84">
  <defs>
    <style>
      .cls-1 {
        fill: #feaa00;
      }

      .cls-2 {
        fill: #feab01;
      }
    </style>
  </defs>
  <path class="cls-1" d="M60.12,47.77c-.06-.07-.36-.3-.41-.3h-9.16v-3.6c0-.24,2.74-2.29,2.8-3.2.04-.61-.5-1.19-1.09-1.24-.87-.06-1.08.66-1.71,1.07v-5.9c4.35-.53,8.02-3.28,9.11-7.61,1.75-6.92-2.4-13.66-7.82-17.6-.53-.38-1.97-1.44-2.55-1.45-.59-.01-2.21,1.17-2.74,1.57-5.43,4.05-9.1,10.31-7.81,17.29-6.28.85-7.49,9.49-1.61,12.07.45.2.97.24,1.38.51v2.9c-1.03-.83-2.47-.19-2.1,1.21.14.55,2.1,2.11,2.1,2.27v1.71h-11.11v-4.01h1.71c.43,0,.96-.69,1.01-1.12.1-.88.12-3.76-.01-4.6-.04-.3-.46-1.02-.76-1.02h-5.26v-3.54h3.37c.33,0,1.13-.58,1.12-1.01-.15-2.28.22-4.84.01-7.09-.07-.67-.28-1.15-1.01-1.23-1.87-.22-4.2.15-6.12.02-1.21.31-.84,2.34.21,2.34h4.55v4.61h-2.13c.05-.93.1-2.1-1.12-2.14-1.3-.04-1.3,1.13-1.24,2.14h-10.27c.04-.93.09-2.1-1.12-2.14-1.31-.04-1.31,1.13-1.25,2.14h-2.24v-4.61h4.67c.97,0,1.53-2.04.21-2.34-1.96.13-4.33-.25-6.24-.02-.73.08-.94.56-1.01,1.23-.21,2.25.16,4.81.01,7.09-.01.43.8,1.01,1.12,1.01h3.48v3.54H3.72c-.3,0-.71.72-.76,1.02-.13.84-.11,3.72-.01,4.6.05.43.58,1.12,1.01,1.12h1.71v4.01H.77c-.29,0-.59.63-.77.83v.71c.35.47.7.85,1.35.83h57.77c1.13,0,1.82-1.19,1-2.07ZM11.46,33.18h10.27v3.54h-10.27v-3.54ZM5.31,41.09v-2h22.45v2H5.31ZM25.04,47.47H8.03v-4.01h17.01v4.01ZM38.51,33.71v3.13c-4.3-1.39-3.49-7.49,1-7.81.06,0,.11.01.16.04.07.04.67,1.18.86,1.43.4.53.85,1.06,1.34,1.5.34.29,1.66,1.08,1.72,1.36.24,1.28-1.47,3.22-2.72,3.48v-2.89s-.25-.57-.3-.64c-.58-.72-2.06-.25-2.06.4ZM48.19,47.47h-7.32v-8.09c1.36-.48,2.57-1.01,3.54-2.12.83-.94,1.16-1.98,1.59-3.13.68.32,1.46.36,2.19.47v12.87ZM49.42,16.65c-.39-.03-1.23.44-1.23.76v5.73c-.79-.61-1.77-2.19-2.9-1.18-.55.49-.45,1.15-.05,1.71.68.98,2.18,1.97,2.95,2.96v5.61c-6.57-.96-8.59-6.81-6.58-12.67,1.28-3.76,4.4-6.96,7.7-9.03,2.2,1.41,4.2,3.21,5.71,5.36,4.18,5.94,3.95,14.88-4.47,16.34v-5.73c1.06-1.03,2.09-2.11,3.02-3.24.3-.76-.37-1.69-1.18-1.66-.74.03-1.24,1.06-1.84,1.41v-5.37c0-.43-.7-.97-1.13-1Z"/>
  <path class="cls-1" d="M32.9,2.47c-4.14-5.02-12.34-1.82-11.99,4.61-1.02-.12-1.74-.96-2.72-1.36-3.89-1.6-8.49.4-9.72,4.46-.33,1.07-.88,3.3.8,3.4,6.15-.36,12.81.46,18.9,0,5.45-.41,8.21-6.88,4.73-11.11ZM10.63,11.21c.72-2.86,3.71-4.4,6.49-3.36,1.24.45,1.97,1.43,3.43,1.65,1.98.31,4.62-.87,5.55,1.71h-15.47ZM28.77,11.08c-.18-.04-.35-.82-.48-1.06-.95-1.81-2.91-3.15-5.02-2.94-.29-3.95,4.42-6.23,7.38-3.55,2.59,2.34,1.49,6.68-1.88,7.55Z"/>
  <path class="cls-2" d="M16.26,23.87c1.9-.43,2.04,2.13.53,2.32s-1.81-2.02-.53-2.32Z"/>
</svg>